<?xml version="1.0" encoding="UTF-8" standalone="no"?>
<!-- Created with Inkscape (http://www.inkscape.org/) -->

<svg
   width="109.34843mm"
   height="80.709869mm"
   viewBox="0 0 109.34843 80.709869"
   version="1.1"
   id="svg1"
   xml:space="preserve"
   sodipodi:docname="mockup.svg"
   inkscape:version="1.4 (86a8ad7, 2024-10-11)"
   xmlns:inkscape="http://www.inkscape.org/namespaces/inkscape"
   xmlns:sodipodi="http://sodipodi.sourceforge.net/DTD/sodipodi-0.dtd"
   xmlns="http://www.w3.org/2000/svg"
   xmlns:svg="http://www.w3.org/2000/svg"><sodipodi:namedview
     id="namedview1"
     pagecolor="#ffffff"
     bordercolor="#000000"
     borderopacity="0.25"
     inkscape:showpageshadow="2"
     inkscape:pageopacity="0.0"
     inkscape:pagecheckerboard="0"
     inkscape:deskcolor="#d1d1d1"
     inkscape:document-units="mm"
     inkscape:zoom="1.4702524"
     inkscape:cx="-2002.7174"
     inkscape:cy="402.65196"
     inkscape:window-width="1718"
     inkscape:window-height="1360"
     inkscape:window-x="1913"
     inkscape:window-y="0"
     inkscape:window-maximized="0"
     inkscape:current-layer="layer1-0"><inkscape:page
       x="0"
       y="0"
       width="109.34843"
       height="80.709869"
       id="page2"
       margin="0"
       bleed="0" /></sodipodi:namedview><defs
     id="defs1" /><g
     inkscape:label="Capa 1"
     inkscape:groupmode="layer"
     id="layer1"
     transform="translate(564.52984,-188.65405)"><g
       inkscape:label="Layer 1"
       id="layer1-0"
       transform="translate(-357.48973,-194.29357)"><g
         id="g42"
         inkscape:export-filename="logoLight.svg"
         inkscape:export-xdpi="1.9108226"
         inkscape:export-ydpi="1.9108226"
         transform="translate(-1.8708867,104.20839)"
         style="fill:#45d293;fill-opacity:1"><path
           id="path29"
           style="display:inline;fill:#45d293;fill-opacity:1;stroke:#283330;stroke-width:0.579001;stroke-opacity:0"
           d="m -198.1301,342.21891 -6.74843,0.0899 0.0718,16.36864 2.71773,0.008 0.0899,-5.57899 h 4.04937 c 6.61697,0 6.32527,-10.93489 -0.18035,-10.88719 z m -0.2372,2.62671 c 3.19714,-0.0318 3.30831,5.56693 0.0476,5.61465 l -3.64216,0.016 0.0475,-5.61516 z"
           transform="translate(-3.5416666e-6)"
           sodipodi:nodetypes="cccccscccccc" /><g
           id="g34"
           style="fill:#45d293;fill-opacity:1"><path
             style="fill:#45d293;fill-opacity:1;stroke:#283330;stroke-width:0.579001;stroke-dasharray:none;stroke-opacity:0"
             d="m -175.50019,297.94924 23.4845,10.43755 c 0,0 1.00046,0.69709 2.17019,0.0335 l 31.35903,-14.53824 c 0.58853,-0.27836 0.66283,-1.14012 -0.005,-1.50596 -10.2614,-4.92741 -21.29034,-8.82034 -31.88667,-13.20725 -0.74233,-0.32617 -1.54289,0.0318 -1.54289,0.0318 l -31.27211,13.21484 c -0.81121,0.47719 -0.80266,1.27568 -0.12665,1.70515 l 5.12178,2.43364 0.0477,6.37838 c -3.46419,1.79958 -0.004,4.36309 -0.004,4.36309 0,0 -1.8729,3.55022 -1.77746,7.07344 l 2e-5,2.60861 6.15569,-0.0477 0.0477,-2.40184 c -0.0159,-3.53117 -1.84513,-7.17368 -1.84513,-7.17368 0,0 3.06122,-2.30548 -0.0318,-4.45373 z"
             id="path30"
             sodipodi:nodetypes="ccccccccccccccccccc" /><path
             style="fill:#45d293;fill-opacity:1;stroke:#283330;stroke-width:0.579001;stroke-dasharray:none;stroke-opacity:0"
             d="m -169.76799,302.71002 17.59223,7.88946 c 0.55112,0.2137 1.49545,0.31493 2.41773,0 l 17.71595,-7.79436 -0.0112,6.64945 -6.60669,0.0411 c -1.83332,-0.0225 -3.6388,1.66637 -3.60506,3.12852 l 0.0411,3.19056 c -0.045,1.75459 -11.1662,2.28556 -16.63241,1.38577 0,0 -7.75841,-1.36028 -9.85042,-3.54227 0,0 -1.2091,-0.81753 -1.21473,-2.52713 z"
             id="path31"
             sodipodi:nodetypes="cccccccccccc" /><rect
             style="fill:#45d293;fill-opacity:1;stroke:#283330;stroke-width:0.579001;stroke-opacity:0"
             id="rect31"
             width="7.9860001"
             height="23.754425"
             x="-139.80104"
             y="312.00845"
             ry="0.86603171" /><rect
             style="fill:#45d293;fill-opacity:1;stroke:#283330;stroke-width:0.487481;stroke-opacity:0"
             id="rect32"
             width="8.0775204"
             height="16.647635"
             x="-150.59109"
             y="319.52365"
             ry="0.60693449" /><rect
             style="fill:#45d293;fill-opacity:1;stroke:#283330;stroke-width:0.41489;stroke-opacity:0"
             id="rect33"
             width="8.1501122"
             height="11.951345"
             x="-161.55983"
             y="324.21124"
             ry="0.43571857" /><rect
             style="fill:#45d293;fill-opacity:1;stroke:#283330;stroke-width:0.344159;stroke-opacity:0"
             id="rect34"
             width="8.2208433"
             height="8.1529846"
             x="-172.21271"
             y="328.08997"
             ry="0.29723907" /></g><path
           style="fill:#45d293;fill-opacity:1;stroke:#283330;stroke-width:0.579001;stroke-opacity:0"
           d="m -191.31395,358.74123 -0.02,-12.10843 2.79888,0.0107 0.0557,2.37264 c 0,0 0.77584,-2.36581 3.10404,-2.56826 l 1.2372,0.0112 0.0338,2.72186 c -1.07975,-0.38241 -1.32719,-0.2137 -1.32719,-0.2137 -2.49691,0.48364 -3.11552,3.28423 -3.11552,3.28423 l -0.0675,6.47848 z"
           id="path34"
           sodipodi:nodetypes="ccccccccccc" /><path
           id="path35"
           style="display:inline;fill:#45d293;fill-opacity:1;stroke:#283330;stroke-width:0.579001;stroke-opacity:0"
           d="m -177.24352,346.33545 a 6.3322635,6.3885007 0 0 0 -6.33243,6.38824 6.3322635,6.3885007 0 0 0 6.33243,6.38876 6.3322635,6.3885007 0 0 0 6.33243,-6.38876 6.3322635,6.3885007 0 0 0 -6.33243,-6.38824 z m 0.009,2.43396 a 3.3834622,3.7734244 0 0 1 3.38533,3.77083 v 0.003 a 3.3834622,3.7734244 0 0 1 -3.38274,3.77341 3.3834622,3.7734244 0 0 1 -3.38429,-3.77186 3.3834622,3.7734244 0 0 1 3.3817,-3.77497 z" /><path
           style="fill:#45d293;fill-opacity:1;stroke:#283330;stroke-width:0.579001;stroke-opacity:0"
           d="m -168.31176,358.72384 -0.0496,-9.43404 -1.87689,-0.0207 0.008,-2.69131 1.9265,0.008 0.0165,-1.57923 c 0.008,-1.30638 0.71736,-2.89633 2.86081,-3.43958 0,0 1.62057,-0.37203 3.28248,0.10753 l 0.0347,2.54478 c -0.50864,-0.43849 -1.48211,-0.27285 -1.48211,-0.27285 -1.05238,0.0935 -1.91471,0.80791 -1.90302,1.5738 l 0.0273,1.06802 3.16786,-10e-4 0.0148,2.66124 -3.18739,0.004 -0.0124,9.46712 z"
           id="path36"
           sodipodi:nodetypes="ccccccccccccccccc" /><path
           id="path37"
           style="display:inline;fill:#45d293;fill-opacity:1;stroke:#283330;stroke-width:0.579001;stroke-opacity:0"
           d="m -155.25778,346.4047 c -0.15645,-5.5e-4 -0.2465,0.008 -0.2465,0.008 -5.09204,0.004 -5.74561,3.26707 -5.9862,5.04362 l 0.0496,2.21589 c 0.56223,5.27513 5.75469,5.25859 5.75469,5.25859 3.00964,0.339 5.25859,-2.1332 5.25859,-2.1332 l -1.77767,-1.97611 c 0,0 -1.37666,1.48001 -2.3027,1.65365 0,0 -0.36381,0.0971 -1.0542,0.0971 -0.69867,-0.0124 -1.00045,-0.10542 -1.00045,-0.10542 -1.25264,-0.31831 -2.03399,-1.81074 -2.03399,-2.94349 l 8.38399,0.0496 c 0.40514,-6.72827 -3.95002,-7.1642 -5.04517,-7.16804 z m -0.53589,2.40089 c 2.37868,-0.0121 2.79078,2.02675 2.78278,2.92333 l -5.63015,-0.0589 c -0.0117,-0.90036 0.43861,-2.86442 2.84737,-2.86442 z" /><path
           style="fill:#45d293;fill-opacity:1;stroke:#283330;stroke-width:0.579001;stroke-opacity:0"
           d="m -147.38487,354.26726 -2.02572,2.13321 c 0.75241,1.18235 3.74551,2.72851 6.22597,2.75332 2.97657,0.13229 6.16811,-2.03398 6.22598,-4.96093 0,-2.09187 -1.30396,-4.79517 -4.69393,-5.20858 0,0 -3.7855,-0.71364 -3.82058,-2.5436 0,0 0.13785,-1.53755 2.37122,-1.74802 0,0 2.79076,0.23494 4.03607,1.69657 l 1.80815,-2.2812 c -0.97053,-1.64287 -3.4368,-2.36488 -5.72864,-2.35318 -2.5257,0.0468 -5.12436,1.75411 -5.40724,3.36775 -0.29425,1.73292 -0.71033,3.79438 2.06705,5.4405 0.75654,0.51676 4.91133,1.78594 4.91133,1.78594 1.20409,0.50239 1.33945,1.86862 1.33945,1.86862 -0.076,1.84165 -3.06993,1.90353 -3.06993,1.90353 -2.28015,-0.23971 -4.23918,-1.85393 -4.23918,-1.85393 z"
           id="path38"
           sodipodi:nodetypes="cccccccccccccccc" /><path
           style="fill:#45d293;fill-opacity:1;stroke:#283330;stroke-width:0.430486;stroke-opacity:0"
           d="m -104.24643,354.99662 -1.64012,1.75918 c 0.63422,0.99828 3.00702,2.26743 4.93432,2.28508 3.115259,0.0844 4.813153,-1.3466 4.915996,-3.7597 0.01407,-1.64853 -0.853236,-3.51473 -3.834491,-3.86673 0,0 -2.374125,-0.36581 -2.393105,-1.39488 0,0 -0.40623,-1.09045 1.32926,-1.24019 1.099153,-0.0409 2.280671,0.2141 3.496316,1.36145 l 1.30996,-2.03446 c -0.754095,-1.16881 -2.779038,-2.0184 -4.559776,-2.01008 -1.96246,0.0333 -4.12435,1.27987 -4.40261,2.73775 -0.22864,1.23288 -0.51183,2.84121 1.64619,4.01235 0.58782,0.36764 3.510977,1.19476 3.510977,1.19476 0.935571,0.35743 0.990375,1.4101 0.990375,1.4101 -0.05905,1.00432 -1.986102,0.99337 -1.986102,0.99337 -1.77166,-0.17054 -3.31719,-1.448 -3.31719,-1.448 z"
           id="path39"
           sodipodi:nodetypes="cccccccccccccccc" /><path
           style="fill:#45d293;fill-opacity:1;stroke:#283330;stroke-width:0.579001;stroke-opacity:0"
           d="m -134.26278,343.33833 3.22696,-0.008 0.0246,3.18814 3.41679,0.007 0.0145,2.78632 -3.47867,-0.0252 0.0254,5.33406 c -0.0294,1.83953 1.88045,1.81142 3.49238,0.90168 l 0.0427,2.91761 c -2.65432,1.13422 -6.86699,1.18513 -6.82022,-3.65579 l 0.0164,-5.4725 -2.05086,-0.0466 0.0165,-2.73011 2.02497,0.0117 z"
           id="path40"
           sodipodi:nodetypes="ccccccccccccccc" /><path
           style="fill:#45d293;fill-opacity:1;stroke:#283330;stroke-width:0.579001;stroke-opacity:0"
           d="m -113.00483,343.36172 3.22696,-0.008 0.0246,3.18814 3.41679,0.007 0.0145,2.78632 -3.47867,-0.0252 0.0254,5.33406 c -0.0294,1.83953 1.88045,1.81142 3.49238,0.90168 l 0.0427,2.91761 c -2.65432,1.13422 -6.86699,1.18513 -6.82022,-3.65579 l 0.0164,-5.4725 -2.05086,-0.0466 0.0165,-2.73011 2.02497,0.0117 z"
           id="path41"
           sodipodi:nodetypes="ccccccccccccccc" /><path
           id="path42"
           style="display:inline;fill:#45d293;fill-opacity:1;stroke:#283330;stroke-width:0.579001;stroke-opacity:0"
           d="m -120.83043,346.05485 c -1.82431,-10e-4 -3.78194,0.72605 -5.18935,2.03605 l 1.67019,2.10013 c 4.43177,-2.52181 5.74642,-0.60358 5.65547,1.25677 -13.2716,-2.54908 -7.0012,13.05516 0.0413,5.68854 l -0.008,1.66192 2.98483,-0.0248 -0.14056,-7.59023 c 0.0344,-3.56903 -2.34734,-5.12669 -5.01365,-5.12837 z m -0.0331,7.21506 c 0.62721,0.0118 1.3609,0.17086 2.19418,0.54312 0,0 -0.35705,2.84045 -2.94711,2.73265 0,0 -2.00428,0.0108 -1.84019,-1.5844 0.0842,-0.79023 0.99025,-1.72149 2.59312,-1.69137 z" /></g></g></g></svg>
